<?xml version="1.0" encoding="UTF-8" standalone="no"?>
<!-- Created with Inkscape (http://www.inkscape.org/) -->

<svg
   xmlns:dc="http://purl.org/dc/elements/1.1/"
   xmlns:cc="http://creativecommons.org/ns#"
   xmlns:rdf="http://www.w3.org/1999/02/22-rdf-syntax-ns#"
   xmlns:svg="http://www.w3.org/2000/svg"
   xmlns="http://www.w3.org/2000/svg"
   xmlns:xlink="http://www.w3.org/1999/xlink"
   xmlns:sodipodi="http://sodipodi.sourceforge.net/DTD/sodipodi-0.dtd"
   xmlns:inkscape="http://www.inkscape.org/namespaces/inkscape"
   width="230.1797"
   height="136.90315"
   viewBox="0 0 230.17971 136.90316"
   id="svg2"
   version="1.1"
   inkscape:version="0.91 r13725"
   sodipodi:docname="button-hover.svg">
  <title
     id="title4253">Splatoony Button</title>
  <defs
     id="defs4">
    <linearGradient
       id="linearGradient4772"
       inkscape:collect="always">
      <stop
         id="stop4774"
         offset="0"
         style="stop-color:#61cd24;stop-opacity:0.89803922" />
      <stop
         id="stop4776"
         offset="1"
         style="stop-color:#74ce48;stop-opacity:0.89803922" />
    </linearGradient>
    <linearGradient
       inkscape:collect="always"
       id="linearGradient4214">
      <stop
         style="stop-color:#c05dda;stop-opacity:1;"
         offset="0"
         id="stop4216" />
      <stop
         style="stop-color:#c45adf;stop-opacity:1"
         offset="1"
         id="stop4218" />
    </linearGradient>
    <inkscape:path-effect
       effect="spiro"
       id="path-effect4178"
       is_visible="true" />
    <inkscape:path-effect
       effect="spiro"
       id="path-effect4156"
       is_visible="true" />
    <inkscape:path-effect
       effect="spiro"
       id="path-effect4156-3"
       is_visible="true" />
    <inkscape:path-effect
       effect="spiro"
       id="path-effect4178-7"
       is_visible="true" />
    <linearGradient
       inkscape:collect="always"
       xlink:href="#linearGradient4772"
       id="linearGradient4220"
       x1="14.285714"
       y1="18.47154"
       x2="178.24498"
       y2="96.685829"
       gradientUnits="userSpaceOnUse"
       gradientTransform="translate(159.63448,105.87966)" />
    <linearGradient
       inkscape:collect="always"
       xlink:href="#linearGradient4214"
       id="linearGradient4662"
       gradientUnits="userSpaceOnUse"
       x1="14.285714"
       y1="18.47154"
       x2="178.24498"
       y2="96.685829"
       gradientTransform="translate(159.63447,105.87965)" />
    <filter
       style="color-interpolation-filters:sRGB"
       inkscape:label="Drop Shadow"
       id="filter4760">
      <feFlood
         flood-opacity="0.25098"
         flood-color="rgb(0,0,0)"
         result="flood"
         id="feFlood4762" />
      <feComposite
         in="flood"
         in2="SourceGraphic"
         operator="in"
         result="composite1"
         id="feComposite4764" />
      <feGaussianBlur
         in="composite1"
         stdDeviation="1"
         result="blur"
         id="feGaussianBlur4766" />
      <feOffset
         dx="2"
         dy="2"
         result="offset"
         id="feOffset4768" />
      <feComposite
         in="offset"
         in2="offset"
         operator="atop"
         result="composite2"
         id="feComposite4770" />
    </filter>
  </defs>
  <sodipodi:namedview
     id="base"
     pagecolor="#ffffff"
     bordercolor="#666666"
     borderopacity="1.0"
     inkscape:pageopacity="0.0"
     inkscape:pageshadow="2"
     inkscape:zoom="2.8"
     inkscape:cx="54.446221"
     inkscape:cy="87.53311"
     inkscape:document-units="px"
     inkscape:current-layer="layer1"
     showgrid="false"
     units="px"
     fit-margin-top="0"
     fit-margin-left="0"
     fit-margin-right="0"
     fit-margin-bottom="0"
     inkscape:window-width="1920"
     inkscape:window-height="1004"
     inkscape:window-x="0"
     inkscape:window-y="24"
     inkscape:window-maximized="1" />
  <metadata
     id="metadata7">
    <rdf:RDF>
      <cc:Work
         rdf:about="">
        <dc:format>image/svg+xml</dc:format>
        <dc:type
           rdf:resource="http://purl.org/dc/dcmitype/StillImage" />
        <dc:title>Splatoony Button</dc:title>
        <dc:date>January 2018</dc:date>
        <dc:creator>
          <cc:Agent>
            <dc:title>Luke Horwell</dc:title>
          </cc:Agent>
        </dc:creator>
        <dc:rights>
          <cc:Agent>
            <dc:title>MIT</dc:title>
          </cc:Agent>
        </dc:rights>
        <dc:description>A fresh looking button that resembles the UI from Splatoon 2.</dc:description>
      </cc:Work>
    </rdf:RDF>
  </metadata>
  <g
     inkscape:label="Layer 1"
     inkscape:groupmode="layer"
     id="layer1"
     transform="translate(-140.45283,-94.471055)">
    <path
       style="opacity:0.8;fill:url(#linearGradient4662);fill-opacity:1;stroke:none;stroke-width:4.16302824;stroke-linecap:butt;stroke-linejoin:round;stroke-miterlimit:4;stroke-dasharray:none;stroke-dashoffset:0;stroke-opacity:1;filter:url(#filter4760)"
       d="m 216.67744,105.87965 a 57.04324,57.04324 0 0 0 -57.04297,57.04297 57.04324,57.04324 0 0 0 57.04297,57.04298 57.04324,57.04324 0 0 0 2.66992,-0.0937 c 2.88048,0.19514 5.80525,0.0361 8.65039,-0.38672 6.92354,-1.02898 13.54193,-3.4745 20.21484,-5.58789 6.67291,-2.11339 13.57943,-3.92241 20.57227,-3.61524 7.68544,0.3376 15.13157,3.21796 22.78906,3.48438 a 47.395653,43.986389 0 0 0 12.48243,1.60351 47.395653,43.986389 0 0 0 47.39453,-43.98633 47.395653,43.986389 0 0 0 -47.39453,-43.98633 47.395653,43.986389 0 0 0 -13.24024,1.77539 c -5.60194,-0.031 -11.25563,0.56877 -16.70898,-0.65039 -4.63013,-1.03512 -8.8722,-3.33506 -12.91602,-5.81641 -4.04383,-2.48139 -7.97933,-5.18049 -12.30078,-7.13872 -0.48429,-0.21945 -0.9769,-0.42634 -1.47266,-0.625 a 57.04324,57.04324 0 0 0 -30.74023,-9.0625 z"
       id="path4149-6"
       inkscape:connector-curvature="0" />
    <path
       style="opacity:1;fill:url(#linearGradient4220);fill-opacity:1;stroke:none;stroke-width:4.16302824;stroke-linecap:butt;stroke-linejoin:round;stroke-miterlimit:4;stroke-dasharray:none;stroke-dashoffset:0;stroke-opacity:1"
       d="m 216.67745,105.87966 a 57.04324,57.04324 0 0 0 -57.04297,57.04297 57.04324,57.04324 0 0 0 57.04297,57.04297 57.04324,57.04324 0 0 0 2.66992,-0.0937 c 2.88048,0.19514 5.80525,0.0361 8.65039,-0.38672 6.92354,-1.02898 13.54194,-3.4745 20.21485,-5.58789 6.67291,-2.11339 13.57942,-3.92241 20.57226,-3.61524 7.68544,0.3376 15.13157,3.21796 22.78906,3.48438 a 47.395653,43.986389 0 0 0 12.48243,1.60351 47.395653,43.986389 0 0 0 47.39453,-43.98632 47.395653,43.986389 0 0 0 -47.39453,-43.98633 47.395653,43.986389 0 0 0 -13.24024,1.77539 c -5.60194,-0.031 -11.25563,0.56878 -16.70898,-0.65039 -4.63013,-1.03512 -8.8722,-3.33506 -12.91602,-5.81641 -4.04383,-2.48139 -7.97933,-5.18049 -12.30078,-7.13872 -0.48428,-0.21945 -0.9769,-0.42634 -1.47265,-0.625 a 57.04324,57.04324 0 0 0 -30.74024,-9.0625 z"
       id="path4149"
       inkscape:connector-curvature="0" />
  </g>
</svg>
